<svg version="1.1" id="Layer_1" xmlns="http://www.w3.org/2000/svg" xmlns:xlink="http://www.w3.org/1999/xlink" x="0px" y="0px"
	 width="100%" viewBox="0 0 1000 1000" enable-background="new 0 0 1000 1000" xml:space="preserve">
<path fill="#000000" opacity="1.000000" stroke="none" 
	d="
M472.000000,0.999999 
	C490.354218,1.000000 508.708466,1.000000 527.727417,1.384810 
	C558.062683,3.220908 587.466797,7.023816 616.234680,14.304978 
	C766.054871,52.224514 876.918701,139.811539 948.218384,276.889465 
	C975.564575,329.464203 991.623047,385.701660 998.173584,444.627625 
	C998.967407,451.768250 1000.050842,458.876648 1001.000000,466.000000 
	C1001.000000,489.020905 1001.000000,512.041809 1000.627197,535.729980 
	C996.691406,584.395935 986.900696,631.018677 970.253296,675.239136 
	C952.967407,673.495605 936.471436,671.000916 919.901733,670.330750 
	C883.690552,668.866089 848.225098,674.636475 813.241638,683.578369 
	C760.750854,696.995361 710.796021,717.312256 661.598389,739.645020 
	C606.867615,764.489380 552.514526,790.204041 497.350739,814.044495 
	C448.563110,835.129395 397.993591,851.038086 344.902008,857.492249 
	C305.748444,862.252075 266.765350,860.865540 228.019547,853.531067 
	C187.927902,845.941895 149.797653,832.565369 113.455711,814.082397 
	C110.898247,812.781738 108.402191,810.808777 106.654129,808.547974 
	C46.064163,730.187805 11.229724,641.733765 2.790250,542.959595 
	C2.419497,538.620422 1.606819,534.319031 0.999998,530.000000 
	C1.000000,510.979095 1.000000,491.958221 1.389076,472.287842 
	C4.847291,423.537445 14.086474,376.696472 30.627203,331.375549 
	C62.784184,243.266678 115.321480,169.616653 188.487549,110.988625 
	C267.490051,47.683887 357.669556,11.794940 458.549805,2.859818 
	C463.052765,2.460984 467.517487,1.629799 472.000000,0.999999 
M643.187195,351.711182 
	C597.636475,377.498810 552.050537,403.224792 506.596680,429.182007 
	C502.628113,431.448303 499.916962,431.459381 495.945160,429.200439 
	C431.091339,392.315613 366.130493,355.618988 301.188843,318.888641 
	C299.946625,318.186127 298.644409,317.589691 297.044373,316.778595 
	C296.966766,318.065735 296.876831,318.862091 296.876770,319.658447 
	C296.870117,395.966492 296.893768,472.274567 296.784607,548.582458 
	C296.780212,551.655334 298.100891,552.886169 300.449554,554.216736 
	C364.933716,590.749084 429.401154,627.311157 493.786438,664.017395 
	C497.174866,665.949158 499.510712,665.727051 502.755219,663.897522 
	C569.044678,626.519653 635.388611,589.238220 701.783447,552.047913 
	C704.780762,550.369019 705.855774,548.580078 705.850830,545.133240 
	C705.744080,470.658081 705.771118,396.182739 705.759644,321.707428 
	C705.759399,320.151947 705.609619,318.596466 705.496033,316.388672 
	C684.508850,328.257721 664.149109,339.771942 643.187195,351.711182 
M538.588440,220.916763 
	C526.607483,214.081055 514.544739,207.382629 502.696808,200.323624 
	C499.269989,198.281891 496.779541,198.375198 493.375244,200.395477 
	C453.348511,224.149185 413.221954,247.734741 373.127441,271.374237 
	C356.741425,281.035339 340.369171,290.719696 323.595886,300.626617 
	C325.592468,301.867950 327.108063,302.861816 328.671234,303.774200 
	C347.044556,314.498749 365.459473,325.153015 383.766602,335.989288 
	C386.512756,337.614838 388.476105,337.700226 391.316803,336.038086 
	C426.320526,315.556458 461.438324,295.269867 496.449768,274.801392 
	C499.230408,273.175751 501.130890,272.983948 504.019196,274.725372 
	C538.899475,295.755280 573.905823,316.576263 608.799011,337.584900 
	C611.694946,339.328491 613.766724,339.531036 616.746277,337.717651 
	C635.917480,326.050018 655.221069,314.599884 674.473511,303.065430 
	C675.680969,302.342041 676.823303,301.509888 678.263123,300.550232 
	C631.633667,273.937378 585.446533,247.576981 538.588440,220.916763 
z"/>
<path fill="#FFFFFF" opacity="1.000000" stroke="none" 
	d="
M0.999998,530.468628 
	C1.606819,534.319031 2.419497,538.620422 2.790250,542.959595 
	C11.229724,641.733765 46.064163,730.187805 106.654129,808.547974 
	C108.402191,810.808777 110.898247,812.781738 113.455711,814.082397 
	C149.797653,832.565369 187.927902,845.941895 228.019547,853.531067 
	C266.765350,860.865540 305.748444,862.252075 344.902008,857.492249 
	C397.993591,851.038086 448.563110,835.129395 497.350739,814.044495 
	C552.514526,790.204041 606.867615,764.489380 661.598389,739.645020 
	C710.796021,717.312256 760.750854,696.995361 813.241638,683.578369 
	C848.225098,674.636475 883.690552,668.866089 919.901733,670.330750 
	C936.471436,671.000916 952.967407,673.495605 970.253296,675.239136 
	C986.900696,631.018677 996.691406,584.395935 1000.627197,536.198608 
	C1001.000000,690.964966 1001.000000,845.929932 1001.000000,1000.947449 
	C667.777039,1000.947449 334.554077,1000.947449 1.000000,1000.947449 
	C1.000000,844.312622 1.000000,687.624939 0.999998,530.468628 
z"/>
<path fill="#FFFFFF" opacity="1.000000" stroke="none" 
	d="
M471.531342,0.999999 
	C467.517487,1.629799 463.052765,2.460984 458.549805,2.859818 
	C357.669556,11.794940 267.490051,47.683887 188.487549,110.988625 
	C115.321480,169.616653 62.784184,243.266678 30.627203,331.375549 
	C14.086474,376.696472 4.847291,423.537445 1.389076,471.819214 
	C1.000000,315.072906 1.000000,158.145828 1.000000,1.000000 
	C157.687500,1.000000 314.375092,1.000000 471.531342,0.999999 
z"/>
<path fill="#FFFFFF" opacity="1.000000" stroke="none" 
	d="
M1001.000000,465.531342 
	C1000.050842,458.876648 998.967407,451.768250 998.173584,444.627625 
	C991.623047,385.701660 975.564575,329.464203 948.218384,276.889465 
	C876.918701,139.811539 766.054871,52.224514 616.234680,14.304978 
	C587.466797,7.023816 558.062683,3.220908 528.196045,1.384810 
	C685.593140,1.000000 843.186218,1.000000 1001.000000,1.000000 
	C1001.000000,155.687485 1001.000000,310.375092 1001.000000,465.531342 
z"/>
<path fill="#FEFEFE" opacity="1.000000" stroke="none" 
	d="
M643.488281,351.498657 
	C664.149109,339.771942 684.508850,328.257721 705.496033,316.388672 
	C705.609619,318.596466 705.759399,320.151947 705.759644,321.707428 
	C705.771118,396.182739 705.744080,470.658081 705.850830,545.133240 
	C705.855774,548.580078 704.780762,550.369019 701.783447,552.047913 
	C635.388611,589.238220 569.044678,626.519653 502.755219,663.897522 
	C499.510712,665.727051 497.174866,665.949158 493.786438,664.017395 
	C429.401154,627.311157 364.933716,590.749084 300.449554,554.216736 
	C298.100891,552.886169 296.780212,551.655334 296.784607,548.582458 
	C296.893768,472.274567 296.870117,395.966492 296.876770,319.658447 
	C296.876831,318.862091 296.966766,318.065735 297.044373,316.778595 
	C298.644409,317.589691 299.946625,318.186127 301.188843,318.888641 
	C366.130493,355.618988 431.091339,392.315613 495.945160,429.200439 
	C499.916962,431.459381 502.628113,431.448303 506.596680,429.182007 
	C552.050537,403.224792 597.636475,377.498810 643.488281,351.498657 
M565.053284,555.559753 
	C588.490051,542.312683 611.894714,529.008118 635.402832,515.888916 
	C638.441589,514.193115 639.372864,512.253296 639.352539,508.862915 
	C639.204468,484.203705 639.272888,459.543243 639.272888,434.883148 
	C639.272888,433.289459 639.272888,431.695740 639.272888,429.358643 
	C636.864014,430.672577 635.145630,431.563446 633.471008,432.530121 
	C590.434937,457.372864 547.385376,482.192413 504.410797,507.141144 
	C501.468140,508.849518 499.407135,508.956177 496.381775,507.183563 
	C453.360718,481.976501 410.247162,456.927368 367.149261,431.851562 
	C365.813599,431.074432 364.406342,430.420258 362.958038,429.670227 
	C362.647797,430.541290 362.452271,430.834351 362.451996,431.127625 
	C362.428131,457.620178 362.360504,484.113190 362.554871,510.604248 
	C362.566559,512.199951 364.321960,514.395996 365.859528,515.278198 
	C409.535706,540.336975 453.299866,565.242310 496.996796,590.265015 
	C499.433746,591.660522 501.169312,591.755615 503.681427,590.316223 
	C523.867004,578.750000 544.157104,567.366272 565.053284,555.559753 
z"/>
<path fill="#FEFEFE" opacity="1.000000" stroke="none" 
	d="
M538.923950,221.066681 
	C585.446533,247.576981 631.633667,273.937378 678.263123,300.550232 
	C676.823303,301.509888 675.680969,302.342041 674.473511,303.065430 
	C655.221069,314.599884 635.917480,326.050018 616.746277,337.717651 
	C613.766724,339.531036 611.694946,339.328491 608.799011,337.584900 
	C573.905823,316.576263 538.899475,295.755280 504.019196,274.725372 
	C501.130890,272.983948 499.230408,273.175751 496.449768,274.801392 
	C461.438324,295.269867 426.320526,315.556458 391.316803,336.038086 
	C388.476105,337.700226 386.512756,337.614838 383.766602,335.989288 
	C365.459473,325.153015 347.044556,314.498749 328.671234,303.774200 
	C327.108063,302.861816 325.592468,301.867950 323.595886,300.626617 
	C340.369171,290.719696 356.741425,281.035339 373.127441,271.374237 
	C413.221954,247.734741 453.348511,224.149185 493.375244,200.395477 
	C496.779541,198.375198 499.269989,198.281891 502.696808,200.323624 
	C514.544739,207.382629 526.607483,214.081055 538.923950,221.066681 
z"/>
<path fill="#010101" opacity="1.000000" stroke="none" 
	d="
M564.734253,555.743286 
	C544.157104,567.366272 523.867004,578.750000 503.681427,590.316223 
	C501.169312,591.755615 499.433746,591.660522 496.996796,590.265015 
	C453.299866,565.242310 409.535706,540.336975 365.859528,515.278198 
	C364.321960,514.395996 362.566559,512.199951 362.554871,510.604248 
	C362.360504,484.113190 362.428131,457.620178 362.451996,431.127625 
	C362.452271,430.834351 362.647797,430.541290 362.958038,429.670227 
	C364.406342,430.420258 365.813599,431.074432 367.149261,431.851562 
	C410.247162,456.927368 453.360718,481.976501 496.381775,507.183563 
	C499.407135,508.956177 501.468140,508.849518 504.410797,507.141144 
	C547.385376,482.192413 590.434937,457.372864 633.471008,432.530121 
	C635.145630,431.563446 636.864014,430.672577 639.272888,429.358643 
	C639.272888,431.695740 639.272888,433.289459 639.272888,434.883148 
	C639.272888,459.543243 639.204468,484.203705 639.352539,508.862915 
	C639.372864,512.253296 638.441589,514.193115 635.402832,515.888916 
	C611.894714,529.008118 588.490051,542.312683 564.734253,555.743286 
z"/>
</svg>